<?xml version="1.0" encoding="utf-8"?><svg viewBox="0 0 20 22" xmlns="http://www.w3.org/2000/svg" xmlns:xlink="http://www.w3.org/1999/xlink"><style>:root>svg{display:none}:root>svg:target{display:block}</style><svg fill="none" viewBox="0 0 18 18" id="chevron" xmlns="http://www.w3.org/2000/svg"><path d="M4.5 6.75l4.5 4.5 4.5-4.5" stroke="#708598" stroke-linecap="round" stroke-linejoin="round"/></svg><svg fill="none" viewBox="0 0 18 22" id="list" xmlns="http://www.w3.org/2000/svg"><path d="M15 1H3a2 2 0 00-2 2v16a2 2 0 002 2h12a2 2 0 002-2V3a2 2 0 00-2-2v0zM13 11H5M13 15H5M10 7H5" stroke="#708598" stroke-width="1.5" stroke-linecap="round" stroke-linejoin="round"/></svg><svg fill="none" viewBox="0 0 14 16" id="loc" xmlns="http://www.w3.org/2000/svg"><path d="M13 6.69c0 4.583-6 8.51-6 8.51s-6-3.927-6-8.51c0-1.561.632-3.06 1.757-4.165A6.057 6.057 0 017 .8c1.591 0 3.117.62 4.243 1.725A5.837 5.837 0 0113 6.691z" stroke="#708598" stroke-linecap="round" stroke-linejoin="round"/><path d="M7 8.655c1.104 0 2-.88 2-1.964s-.896-1.963-2-1.963c-1.105 0-2 .879-2 1.963 0 1.085.895 1.964 2 1.964z" stroke="#708598" stroke-linecap="round" stroke-linejoin="round"/></svg><svg fill="none" viewBox="0 0 20 20" id="menu" xmlns="http://www.w3.org/2000/svg"><path d="M2.5 10h15M2.5 5h15M2.5 15h15" stroke="#222" stroke-width="2" stroke-linecap="round" stroke-linejoin="round"/></svg><svg fill="none" viewBox="0 0 20 20" id="search" xmlns="http://www.w3.org/2000/svg"><path d="M9.167 15.833a6.667 6.667 0 100-13.333 6.667 6.667 0 000 13.333zM17.5 17.5l-3.625-3.625" stroke="#708598" stroke-width="2" stroke-linecap="round" stroke-linejoin="round"/></svg></svg>